<svg width="502" height="502" viewBox="0 0 502 502" fill="none" xmlns="http://www.w3.org/2000/svg">
<circle cx="251" cy="251" r="251" fill="#2B7E4C"/>
<path d="M329.921 137.8H297.763V130.312C297.763 129.165 297.307 128.064 296.495 127.252C295.684 126.44 294.583 125.984 293.435 125.984H207.565C206.417 125.984 205.316 126.44 204.505 127.252C203.693 128.064 203.237 129.165 203.237 130.312V137.8H171.079C167.08 137.742 163.221 139.273 160.349 142.056C157.477 144.839 155.826 148.647 155.757 152.646V362.17C155.826 366.169 157.477 369.977 160.349 372.76C163.221 375.543 167.08 377.074 171.079 377.016H329.921C333.92 377.074 337.779 375.543 340.651 372.76C343.523 369.977 345.174 366.169 345.243 362.17V152.646C345.174 148.647 343.523 144.839 340.651 142.056C337.779 139.273 333.92 137.742 329.921 137.8ZM211.893 134.641H289.107V149.573H211.893V134.641ZM336.586 362.17C336.519 363.873 335.78 365.48 334.531 366.64C333.282 367.8 331.624 368.418 329.921 368.359H171.079C169.376 368.418 167.718 367.8 166.469 366.64C165.22 365.48 164.481 363.873 164.414 362.17V152.646C164.481 150.943 165.22 149.336 166.469 148.176C167.718 147.016 169.376 146.398 171.079 146.456H203.237V153.901C203.237 155.049 203.693 156.15 204.505 156.961C205.316 157.773 206.417 158.229 207.565 158.229H293.435C294.583 158.229 295.684 157.773 296.495 156.961C297.307 156.15 297.763 155.049 297.763 153.901V146.456H329.921C331.624 146.398 333.282 147.016 334.531 148.176C335.78 149.336 336.519 150.943 336.586 152.646V362.17Z" fill="#E6FFE6"/>
<path d="M232.408 207.05H246.172V220.814C246.172 221.961 246.628 223.062 247.44 223.874C248.251 224.686 249.352 225.142 250.5 225.142C251.648 225.142 252.749 224.686 253.56 223.874C254.372 223.062 254.828 221.961 254.828 220.814V207.05H268.592C269.739 207.05 270.84 206.594 271.652 205.782C272.464 204.971 272.92 203.87 272.92 202.722C272.92 201.574 272.464 200.473 271.652 199.662C270.84 198.85 269.739 198.394 268.592 198.394H254.828V184.587C254.828 183.439 254.372 182.338 253.56 181.527C252.749 180.715 251.648 180.259 250.5 180.259C249.352 180.259 248.251 180.715 247.44 181.527C246.628 182.338 246.172 183.439 246.172 184.587V198.394H232.408C231.261 198.394 230.16 198.85 229.348 199.662C228.536 200.473 228.08 201.574 228.08 202.722C228.08 203.87 228.536 204.971 229.348 205.782C230.16 206.594 231.261 207.05 232.408 207.05Z" fill="#E6FFE6"/>
<path d="M184.972 255.828H250.5C251.648 255.828 252.749 255.372 253.56 254.56C254.372 253.749 254.828 252.648 254.828 251.5C254.828 250.352 254.372 249.251 253.56 248.44C252.749 247.628 251.648 247.172 250.5 247.172H184.972C183.824 247.172 182.723 247.628 181.912 248.44C181.1 249.251 180.644 250.352 180.644 251.5C180.644 252.648 181.1 253.749 181.912 254.56C182.723 255.372 183.824 255.828 184.972 255.828Z" fill="#E6FFE6"/>
<path d="M316.028 274.655H184.972C183.824 274.655 182.723 275.111 181.912 275.923C181.1 276.735 180.644 277.836 180.644 278.984C180.644 280.131 181.1 281.232 181.912 282.044C182.723 282.856 183.824 283.312 184.972 283.312H316.028C317.176 283.312 318.277 282.856 319.088 282.044C319.9 281.232 320.356 280.131 320.356 278.984C320.356 277.836 319.9 276.735 319.088 275.923C318.277 275.111 317.176 274.655 316.028 274.655Z" fill="#E6FFE6"/>
<path d="M316.028 302.139H184.972C183.824 302.139 182.723 302.595 181.912 303.407C181.1 304.218 180.644 305.319 180.644 306.467C180.644 307.615 181.1 308.716 181.912 309.528C182.723 310.339 183.824 310.795 184.972 310.795H316.028C317.176 310.795 318.277 310.339 319.088 309.528C319.9 308.716 320.356 307.615 320.356 306.467C320.356 305.319 319.9 304.218 319.088 303.407C318.277 302.595 317.176 302.139 316.028 302.139Z" fill="#E6FFE6"/>
<path d="M316.028 329.666H184.972C183.824 329.666 182.723 330.122 181.912 330.934C181.1 331.745 180.644 332.846 180.644 333.994C180.644 335.142 181.1 336.243 181.912 337.054C182.723 337.866 183.824 338.322 184.972 338.322H316.028C317.176 338.322 318.277 337.866 319.088 337.054C319.9 336.243 320.356 335.142 320.356 333.994C320.356 332.846 319.9 331.745 319.088 330.934C318.277 330.122 317.176 329.666 316.028 329.666Z" fill="#E6FFE6"/>
</svg>
